<svg xmlns="http://www.w3.org/2000/svg" viewBox="0 0 78 24" aria-label="Spotify" aria-hidden="false" height="24" data-encore-id="logoSpotify" class="Svg-sc-6c3c1v-0 dDJltW"><path d="M31.823 11.078c-2.019-.494-2.379-.84-2.379-1.57 0-.688.633-1.151 1.572-1.151.91 0 1.814.352 2.76 1.076a.131.131 0 0 0 .187-.03l.987-1.426a.139.139 0 0 0-.025-.185c-1.127-.928-2.396-1.378-3.88-1.378-2.18 0-3.703 1.342-3.703 3.263 0 2.06 1.315 2.788 3.585 3.352 1.932.457 2.258.84 2.258 1.524 0 .757-.659 1.229-1.72 1.229-1.18 0-2.141-.408-3.216-1.364a.13.13 0 0 0-.188.016l-1.106 1.35a.137.137 0 0 0 .013.188c1.252 1.147 2.79 1.752 4.451 1.752 2.35 0 3.869-1.317 3.869-3.356 0-1.723-1.003-2.676-3.465-3.29Zm10.487 2.31c0 1.454-.874 2.47-2.125 2.47-1.235 0-2.169-1.061-2.169-2.47 0-1.41.933-2.47 2.17-2.47 1.23 0 2.124 1.038 2.124 2.47Zm-1.706-4.354c-1.018 0-1.854.412-2.543 1.256v-.95a.136.136 0 0 0-.038-.095.132.132 0 0 0-.093-.04h-1.81a.131.131 0 0 0-.093.04.136.136 0 0 0-.039.096v10.546c0 .076.06.137.133.137h1.809a.132.132 0 0 0 .093-.041.136.136 0 0 0 .038-.096v-3.329c.69.794 1.525 1.18 2.543 1.18 1.893 0 3.808-1.494 3.808-4.35 0-2.858-1.915-4.354-3.808-4.354Zm8.72 6.839c-1.297 0-2.274-1.068-2.274-2.486 0-1.422.943-2.455 2.244-2.455 1.305 0 2.288 1.069 2.288 2.487 0 1.422-.949 2.454-2.258 2.454Zm0-6.838c-2.438 0-4.347 1.926-4.347 4.383 0 2.432 1.896 4.338 4.317 4.338 2.445 0 4.36-1.92 4.36-4.369 0-2.44-1.901-4.353-4.33-4.353Zm9.535.17h-1.99V7.117a.136.136 0 0 0-.08-.126.13.13 0 0 0-.052-.01h-1.809a.133.133 0 0 0-.093.04.136.136 0 0 0-.038.095v2.087h-.87a.131.131 0 0 0-.122.085.139.139 0 0 0-.01.052v1.595c0 .074.06.135.132.135h.87v4.126c0 1.667.809 2.513 2.404 2.513.648 0 1.186-.138 1.694-.434a.135.135 0 0 0 .067-.117V15.64a.137.137 0 0 0-.063-.115.13.13 0 0 0-.129-.006c-.349.18-.685.263-1.061.263-.58 0-.84-.271-.84-.876V11.07h1.99a.13.13 0 0 0 .094-.04.136.136 0 0 0 .039-.096V9.339a.137.137 0 0 0-.039-.096.132.132 0 0 0-.094-.04v.001Zm6.934.007v-.255c0-.755.281-1.092.914-1.092.376 0 .68.077 1.019.194a.13.13 0 0 0 .118-.02.135.135 0 0 0 .056-.11V6.365a.136.136 0 0 0-.094-.13 4.852 4.852 0 0 0-1.502-.221c-1.67 0-2.554.965-2.554 2.788v.393h-.87a.132.132 0 0 0-.093.04.136.136 0 0 0-.038.096v1.603c0 .075.059.136.132.136h.87v6.364c0 .075.058.135.131.135h1.809c.072 0 .131-.06.131-.135V11.07h1.69l2.586 6.362c-.294.669-.583.802-.977.802-.319 0-.654-.098-.998-.29a.133.133 0 0 0-.105-.01.135.135 0 0 0-.078.072l-.612 1.38a.137.137 0 0 0 .056.175 3.733 3.733 0 0 0 1.932.508c1.334 0 2.073-.638 2.724-2.355l3.137-8.317a.14.14 0 0 0-.014-.126.131.131 0 0 0-.108-.06h-1.883a.132.132 0 0 0-.126.092l-1.928 5.651L69.006 9.3a.133.133 0 0 0-.124-.088h-3.09v.001Zm-4.02-.008h-1.809a.132.132 0 0 0-.093.041.136.136 0 0 0-.038.096v8.094c0 .075.06.135.132.135h1.809c.072 0 .131-.06.131-.135V9.34a.136.136 0 0 0-.038-.096.132.132 0 0 0-.094-.04Zm-.896-3.685a1.295 1.295 0 0 0-.919.393c-.243.25-.379.586-.377.937a1.342 1.342 0 0 0 .377.938 1.304 1.304 0 0 0 .92.393c.346-.002.677-.143.92-.393s.379-.587.377-.938c0-.735-.582-1.33-1.297-1.33Zm15.918 4.49h-.331v.434h.331c.165 0 .264-.083.264-.216 0-.142-.099-.217-.264-.217Zm.215.619.36.517h-.304l-.323-.474h-.279v.474h-.254v-1.37h.595c.31 0 .515.163.515.436a.412.412 0 0 1-.31.417Zm-.282-1.31c-.652 0-1.146.532-1.146 1.183 0 .65.49 1.175 1.139 1.175.652 0 1.147-.532 1.147-1.183 0-.65-.492-1.174-1.14-1.174Zm-.007 2.488a1.259 1.259 0 0 1-.904-.384 1.295 1.295 0 0 1-.368-.92c0-.717.563-1.314 1.279-1.314a1.259 1.259 0 0 1 .903.384 1.295 1.295 0 0 1 .369.921c0 .717-.563 1.314-1.279 1.314Zm-57.623-1.168C15.23 8.341 8.85 8.13 5.159 9.251a1.122 1.122 0 1 1-.652-2.148C8.745 5.816 15.79 6.064 20.244 8.708a1.122 1.122 0 0 1-1.145 1.93Zm-1.413 3.71c-3.225-1.982-8.142-2.556-11.958-1.398a.937.937 0 0 1-1.167-.623.936.936 0 0 1 .624-1.166c4.358-1.323 9.776-.683 13.48 1.593a.935.935 0 1 1-.98 1.595Zm-1.21 3.21c-2.818-1.723-6.365-2.112-10.542-1.158a.748.748 0 0 1-.333-1.458c4.572-1.045 8.492-.595 11.655 1.338a.748.748 0 0 1-.78 1.277ZM0 12c0 6.628 5.373 12 12 12 6.628 0 12-5.372 12-12 0-6.627-5.372-12-12-12C5.373 0 0 5.373 0 12Z"/></svg>