<svg width="24" height="24" fill="none" xmlns="http://www.w3.org/2000/svg"><path d="M14 4h.75a.75.75 0 0 0-1.156-.63l.405.63Zm0 16-.406.63a.75.75 0 0 0 1.155-.63H14ZM2 8.5v-.75a.75.75 0 0 0-.75.75H2Zm0 7h-.75c0 .414.336.75.75.75v-.75Zm5-7v.75h.22l.186-.12L7 8.5Zm0 7 .406-.63-.186-.12H7v.75ZM13.25 4v16h1.5V4h-1.5Zm-12 4.5v7h1.5v-7h-1.5Zm.75.75h5v-1.5H2v1.5Zm0 7h5v-1.5H2v1.5Zm5.406-7.12 6.999-4.5-.811-1.26-7 4.5.812 1.26Zm-.812 7 7 4.5.81-1.26-6.998-4.5-.812 1.26Z" fill="#141B34"/><path d="m17 9.5 5 5m-5 0 5-5" stroke="#141B34" stroke-width="1.5" stroke-linejoin="round"/></svg>