<svg width="24" height="24" fill="none" xmlns="http://www.w3.org/2000/svg"><path d="M4 7c0-1.414 0-2.121.44-2.56C4.878 4 5.585 4 7 4c1.414 0 2.121 0 2.56.44C10 4.878 10 5.585 10 7v10c0 1.414 0 2.121-.44 2.56C9.122 20 8.415 20 7 20c-1.414 0-2.121 0-2.56-.44C4 19.122 4 18.415 4 17V7Zm10 0c0-1.414 0-2.121.44-2.56C14.878 4 15.585 4 17 4c1.414 0 2.121 0 2.56.44C20 4.878 20 5.585 20 7v10c0 1.414 0 2.121-.44 2.56-.439.44-1.146.44-2.56.44-1.414 0-2.121 0-2.56-.44C14 19.122 14 18.415 14 17V7Z" stroke="#141B34" stroke-width="1.5"/></svg>